<?xml version="1.0" encoding="utf-8"?>
<!-- Generator: Adobe Illustrator 22.1.0, SVG Export Plug-In . SVG Version: 6.00 Build 0)  -->
<svg version="1.1" id="Layer_1" xmlns="http://www.w3.org/2000/svg" xmlns:xlink="http://www.w3.org/1999/xlink" x="0px" y="0px"
	 viewBox="0 0 327.9 104.6" style="enable-background:new 0 0 327.9 104.6;" xml:space="preserve">
<style type="text/css">
	.st0{fill:url(#SVGID_1_);}
	.st1{fill:url(#SVGID_2_);}
	.st2{fill:url(#SVGID_3_);}
	.st3{fill:url(#SVGID_4_);}
	.st4{fill:url(#SVGID_5_);}
	.st5{fill:url(#SVGID_6_);}
	.st6{fill:url(#SVGID_7_);}
	.st7{fill:url(#SVGID_8_);}
	.st8{fill:url(#SVGID_9_);}
	.st9{fill:url(#SVGID_10_);}
	.st10{fill:#0F0F0F;}
</style>
<title>logo-black</title>
<g>
	<linearGradient id="SVGID_1_" gradientUnits="userSpaceOnUse" x1="-3.7439" y1="18.0654" x2="45.3038" y2="90.7816">
		<stop  offset="0" style="stop-color:#2360B1"/>
		<stop  offset="0.25" style="stop-color:#256FBF"/>
		<stop  offset="0.5594" style="stop-color:#2360B1"/>
		<stop  offset="0.8" style="stop-color:#A02D6E"/>
		<stop  offset="0.9" style="stop-color:#F3506F"/>
		<stop  offset="1" style="stop-color:#FCB450"/>
	</linearGradient>
	<path class="st0" d="M27.4,79.9l7.5,14c5.9-3.7,11.7-7.5,17.4-11.5l-23.5-4.3C27.3,77.8,26.7,78.6,27.4,79.9z"/>
	<linearGradient id="SVGID_2_" gradientUnits="userSpaceOnUse" x1="-26.2887" y1="33.272" x2="22.7591" y2="105.9883">
		<stop  offset="0" style="stop-color:#2360B1"/>
		<stop  offset="0.25" style="stop-color:#256FBF"/>
		<stop  offset="0.5594" style="stop-color:#2360B1"/>
		<stop  offset="0.8" style="stop-color:#A02D6E"/>
		<stop  offset="0.9" style="stop-color:#F3506F"/>
		<stop  offset="1" style="stop-color:#FCB450"/>
	</linearGradient>
	<path class="st1" d="M19.1,76.3c-0.3-0.1-1.4,0.6-2.6,1.5L0.2,89.9c-1.7,12.3,8.6,19.3,22.4,11.2c2.6-1.5,5.2-3,7.8-4.5l-9.5-17.9
		C20.1,77.4,19.4,76.3,19.1,76.3z"/>
	<linearGradient id="SVGID_3_" gradientUnits="userSpaceOnUse" x1="31.1558" y1="-5.4748" x2="80.2036" y2="67.2415">
		<stop  offset="0" style="stop-color:#2360B1"/>
		<stop  offset="0.25" style="stop-color:#256FBF"/>
		<stop  offset="0.5594" style="stop-color:#2360B1"/>
		<stop  offset="0.8" style="stop-color:#A02D6E"/>
		<stop  offset="0.9" style="stop-color:#F3506F"/>
		<stop  offset="1" style="stop-color:#FCB450"/>
	</linearGradient>
	<path class="st2" d="M65.6,41.2l-9.6,7.1c-1.2,0.9-1.3,2.4-0.2,3.4L72,67.9c10.1-7.5,11.5-17.7,4.9-26.3l-6.5-1.4
		C68.9,39.9,66.8,40.3,65.6,41.2z"/>
	<linearGradient id="SVGID_4_" gradientUnits="userSpaceOnUse" x1="6.2185" y1="11.3457" x2="55.2662" y2="84.0619">
		<stop  offset="0" style="stop-color:#2360B1"/>
		<stop  offset="0.25" style="stop-color:#256FBF"/>
		<stop  offset="0.5594" style="stop-color:#2360B1"/>
		<stop  offset="0.8" style="stop-color:#A02D6E"/>
		<stop  offset="0.9" style="stop-color:#F3506F"/>
		<stop  offset="1" style="stop-color:#FCB450"/>
	</linearGradient>
	<path class="st3" d="M51.6,54.9c-1-1-2.8-1.1-4-0.3L26.4,70.4c-1.2,0.9-0.9,1.8,0.5,2l31.3,5.8c3.2-2.3,6.4-4.7,9.6-7.2L51.6,54.9z
		"/>
	<linearGradient id="SVGID_5_" gradientUnits="userSpaceOnUse" x1="24.063" y1="-0.6906" x2="73.1107" y2="72.0256">
		<stop  offset="0" style="stop-color:#2360B1"/>
		<stop  offset="0.25" style="stop-color:#256FBF"/>
		<stop  offset="0.5594" style="stop-color:#2360B1"/>
		<stop  offset="0.8" style="stop-color:#A02D6E"/>
		<stop  offset="0.9" style="stop-color:#F3506F"/>
		<stop  offset="1" style="stop-color:#FCB450"/>
	</linearGradient>
	<path class="st4" d="M58.4,37.6l-18.7-4.1c-1.4-0.3-1.7,0.3-0.7,1.3l9.4,9.4c1,1,2.8,1.1,4,0.3l6.5-4.8
		C60,38.9,59.8,37.9,58.4,37.6z"/>
	<linearGradient id="SVGID_6_" gradientUnits="userSpaceOnUse" x1="4.5783" y1="12.452" x2="53.626" y2="85.1683">
		<stop  offset="0" style="stop-color:#2360B1"/>
		<stop  offset="0.25" style="stop-color:#256FBF"/>
		<stop  offset="0.5594" style="stop-color:#2360B1"/>
		<stop  offset="0.8" style="stop-color:#A02D6E"/>
		<stop  offset="0.9" style="stop-color:#F3506F"/>
		<stop  offset="1" style="stop-color:#FCB450"/>
	</linearGradient>
	<path class="st5" d="M21.5,24.8L1.8,5.1c-2.4,4-2.6,10.1,0.6,17l18.4,4C22.2,26.4,22.5,25.8,21.5,24.8z"/>
	<linearGradient id="SVGID_7_" gradientUnits="userSpaceOnUse" x1="-16.5652" y1="26.7134" x2="32.4825" y2="99.4297">
		<stop  offset="0" style="stop-color:#2360B1"/>
		<stop  offset="0.25" style="stop-color:#256FBF"/>
		<stop  offset="0.5594" style="stop-color:#2360B1"/>
		<stop  offset="0.8" style="stop-color:#A02D6E"/>
		<stop  offset="0.9" style="stop-color:#F3506F"/>
		<stop  offset="1" style="stop-color:#FCB450"/>
	</linearGradient>
	<path class="st6" d="M15.2,68.2L6.6,52c0,5.5-0.4,11-1.2,16.4l8.4,1.6C15.3,70.3,15.9,69.4,15.2,68.2z"/>
	<linearGradient id="SVGID_8_" gradientUnits="userSpaceOnUse" x1="24.2207" y1="-0.797" x2="73.2684" y2="71.9193">
		<stop  offset="0" style="stop-color:#2360B1"/>
		<stop  offset="0.25" style="stop-color:#256FBF"/>
		<stop  offset="0.5594" style="stop-color:#2360B1"/>
		<stop  offset="0.8" style="stop-color:#A02D6E"/>
		<stop  offset="0.9" style="stop-color:#F3506F"/>
		<stop  offset="1" style="stop-color:#FCB450"/>
	</linearGradient>
	<path class="st7" d="M35.4,29.3L61.9,35c1.4,0.3,3.5-0.1,4.7-1l0.9-0.7C53,22.3,38.6,12.3,22.5,3.5c-6.9-4.1-12.9-4.3-17-2L31,26.9
		C32,27.9,34,29,35.4,29.3z"/>
	<linearGradient id="SVGID_9_" gradientUnits="userSpaceOnUse" x1="-24.6658" y1="32.1774" x2="24.3819" y2="104.8937">
		<stop  offset="0" style="stop-color:#2360B1"/>
		<stop  offset="0.25" style="stop-color:#256FBF"/>
		<stop  offset="0.5594" style="stop-color:#2360B1"/>
		<stop  offset="0.8" style="stop-color:#A02D6E"/>
		<stop  offset="0.9" style="stop-color:#F3506F"/>
		<stop  offset="1" style="stop-color:#FCB450"/>
	</linearGradient>
	<path class="st8" d="M9,74.4l-4.4-0.8c-0.5,2.7-1.1,5.3-1.9,7.9l6.7-5C10.6,75.6,10.4,74.7,9,74.4z"/>
	<linearGradient id="SVGID_10_" gradientUnits="userSpaceOnUse" x1="2.9793" y1="13.5305" x2="52.027" y2="86.2468">
		<stop  offset="0" style="stop-color:#2360B1"/>
		<stop  offset="0.25" style="stop-color:#256FBF"/>
		<stop  offset="0.5594" style="stop-color:#2360B1"/>
		<stop  offset="0.8" style="stop-color:#A02D6E"/>
		<stop  offset="0.9" style="stop-color:#F3506F"/>
		<stop  offset="1" style="stop-color:#FCB450"/>
	</linearGradient>
	<path class="st9" d="M19.8,65.6c0.7,1.3,2.2,1.6,3.3,0.7l20.8-15.5c1.2-0.9,1.3-2.4,0.2-3.4L29.5,32.8c-1-1-3-2.1-4.4-2.4L3.4,25.7
		c1.1,4.5,1.9,9.1,2.5,13.8L19.8,65.6z"/>
</g>
    <g id="svgGroup" stroke-linecap="round" fill-rule="evenodd" font-size="7pt" stroke="#000" stroke-width="0.25mm" fill="#000" style="stroke:#000;stroke-width:0.25mm;fill:#000">
        <path d="M 8.9 1.101 L 27.4 1.201 Q 41.9 1.201 52.9 11.651 A 33.956 33.956 0 0 1 63.886 36.284 A 41.598 41.598 0 0 1 63.9 37.351 A 35.892 35.892 0 0 1 53.317 63.33 A 43.608 43.608 0 0 1 53.15 63.501 A 35.184 35.184 0 0 1 27.636 74.397 A 42.619 42.619 0 0 1 27.1 74.401 L 8.8 74.401 A 23.048 23.048 0 0 1 6.351 74.281 Q 3.858 74.013 2.467 73.147 A 3.752 3.752 0 0 1 1.2 71.901 A 7.284 7.284 0 0 1 0.542 70.286 Q 0.076 68.656 0.011 66.294 A 28.64 28.64 0 0 1 0 65.501 L 0 9.901 Q 0 7.501 0.15 6.401 A 5.343 5.343 0 0 1 0.351 5.529 Q 0.597 4.744 1.1 3.801 A 3.856 3.856 0 0 1 2.777 2.195 Q 4.825 1.101 8.9 1.101 Z M 27.3 18.901 L 17.7 18.901 L 17.7 56.701 L 27.4 56.701 Q 34.6 56.701 40.4 51.351 A 17.425 17.425 0 0 0 46.187 38.654 A 22.099 22.099 0 0 0 46.2 37.901 Q 46.2 29.801 40.55 24.351 Q 34.9 18.901 27.3 18.901 Z" id="0" transform="translate(110,28) scale(.6)"/>
        <path class="st10" d="M 88.1 46.701 L 88.1 56.801 L 118.9 56.801 Q 121.2 56.801 122.35 56.951 Q 123.5 57.101 125 57.901 A 3.856 3.856 0 0 1 126.605 59.578 Q 127.7 61.626 127.7 65.701 Q 127.7 70.869 125.683 72.876 A 4.182 4.182 0 0 1 124 73.901 A 7.837 7.837 0 0 1 122.901 74.191 Q 121.316 74.501 118.8 74.501 L 79.2 74.501 Q 72.2 74.501 71 70.701 A 6.908 6.908 0 0 1 70.71 69.65 Q 70.4 68.116 70.4 65.601 L 70.4 10.001 A 21.404 21.404 0 0 1 70.519 7.654 Q 70.875 4.438 72.3 3.051 A 5.021 5.021 0 0 1 73.907 2.038 Q 75.48 1.388 77.979 1.243 A 26.19 26.19 0 0 1 79.5 1.201 L 118.9 1.201 Q 121.2 1.201 122.35 1.351 Q 123.5 1.501 125 2.301 A 3.856 3.856 0 0 1 126.605 3.978 Q 127.7 6.026 127.7 10.101 Q 127.7 15.269 125.683 17.276 A 4.182 4.182 0 0 1 124 18.301 A 7.837 7.837 0 0 1 122.901 18.591 Q 121.316 18.901 118.8 18.901 L 88.1 18.901 L 88.1 29.001 L 107.9 29.001 Q 110.2 29.001 111.35 29.151 Q 112.5 29.301 114 30.101 A 3.856 3.856 0 0 1 115.605 31.778 Q 116.7 33.826 116.7 37.901 Q 116.7 44.901 112.9 46.101 A 7.837 7.837 0 0 1 111.801 46.391 Q 110.216 46.701 107.7 46.701 L 88.1 46.701 Z" id="1" transform="translate(110,28) scale(.6)" />
        <path class="st10" d="M 164.4 54.301 L 151.9 54.301 L 151.9 65.601 Q 151.9 67.901 151.75 69.051 Q 151.6 70.201 150.8 71.701 A 3.856 3.856 0 0 1 149.123 73.306 Q 147.075 74.401 143 74.401 Q 137.832 74.401 135.825 72.384 A 4.182 4.182 0 0 1 134.8 70.701 A 7.837 7.837 0 0 1 134.51 69.602 Q 134.2 68.016 134.2 65.501 L 134.2 10.001 Q 134.2 7.701 134.35 6.551 Q 134.5 5.401 135.3 3.901 A 3.856 3.856 0 0 1 136.977 2.295 Q 139.025 1.201 143.1 1.201 L 164.5 1.201 A 25.346 25.346 0 0 1 176.099 4.09 A 34.972 34.972 0 0 1 181.6 7.601 A 21.496 21.496 0 0 1 186.529 12.903 A 27.252 27.252 0 0 1 188.3 16.001 A 25.659 25.659 0 0 1 190.809 25.405 A 30.919 30.919 0 0 1 190.9 27.801 A 28.003 28.003 0 0 1 189.983 35.079 A 24.129 24.129 0 0 1 188.3 39.551 A 25.563 25.563 0 0 1 185.114 44.522 A 20.953 20.953 0 0 1 181.6 47.901 A 33.39 33.39 0 0 1 174.49 52.162 A 25.188 25.188 0 0 1 164.4 54.301 Z M 164.4 18.901 L 151.9 18.901 L 151.9 36.601 L 164.5 36.601 A 8.709 8.709 0 0 0 168.303 35.698 A 12.26 12.26 0 0 0 170.4 34.401 A 7.098 7.098 0 0 0 173.095 29.983 A 11.025 11.025 0 0 0 173.3 27.801 A 10.636 10.636 0 0 0 172.988 25.145 A 7.165 7.165 0 0 0 170.4 21.151 A 11.689 11.689 0 0 0 167.941 19.663 A 8.731 8.731 0 0 0 164.4 18.901 Z" id="2" transform="translate(110,28) scale(.6)" />
        <path class="st10" d="M 257.415 10.917 A 35.46 35.46 0 0 0 231.8 0.301 Q 224.9 0.301 218.4 3.101 Q 211.9 5.901 206.9 10.801 Q 201.9 15.701 198.9 22.951 A 38.693 38.693 0 0 0 198.322 24.434 A 40.566 40.566 0 0 0 195.9 38.501 Q 195.9 53.701 206.55 64.701 Q 217.2 75.701 232.4 75.701 A 40.549 40.549 0 0 0 233.814 75.676 A 33.52 33.52 0 0 0 258 64.551 Q 268.4 53.401 268.4 37.551 A 45.576 45.576 0 0 0 268.394 36.811 A 35.596 35.596 0 0 0 257.5 11.001 A 44.919 44.919 0 0 0 257.415 10.917 Z M 213.6 38.001 Q 213.6 46.901 219.35 52.451 Q 225.1 58.001 232.2 58.001 A 17.648 17.648 0 0 0 243.369 54.013 A 23.545 23.545 0 0 0 245 52.601 Q 250.7 47.201 250.7 38.101 A 23.333 23.333 0 0 0 249.823 31.541 A 17.859 17.859 0 0 0 244.95 23.501 A 21.133 21.133 0 0 0 239.858 19.839 A 17.029 17.029 0 0 0 232.1 18.001 A 17.28 17.28 0 0 0 221.208 21.879 A 23.465 23.465 0 0 0 219.3 23.551 A 18.606 18.606 0 0 0 213.739 35.301 A 25.527 25.527 0 0 0 213.6 38.001 Z" id="3" transform="translate(110,28) scale(.6)"/>
        <path class="st10" d="M 273.7 1.101 L 329.3 1.101 A 21.793 21.793 0 0 1 330.923 1.157 Q 332.474 1.273 333.478 1.63 A 4.663 4.663 0 0 1 334 1.851 A 3.783 3.783 0 0 1 335.968 4.102 A 4.588 4.588 0 0 1 336 4.201 A 9.367 9.367 0 0 1 336.295 5.48 Q 336.5 6.735 336.5 8.401 A 22.254 22.254 0 0 1 336.451 9.923 Q 336.345 11.473 336.006 12.534 A 6.696 6.696 0 0 1 336 12.551 A 4.466 4.466 0 0 1 335.55 13.542 A 3.078 3.078 0 0 1 334.3 14.701 A 7.067 7.067 0 0 1 332.885 15.213 Q 331.366 15.601 329.2 15.601 L 310.1 15.601 L 310.1 65.901 Q 310.1 68.201 309.95 69.301 A 5.617 5.617 0 0 1 309.753 70.175 Q 309.519 70.944 309.05 71.851 A 3.816 3.816 0 0 1 307.523 73.415 A 5.633 5.633 0 0 1 306.4 73.901 Q 305.071 74.321 303.154 74.447 A 26.787 26.787 0 0 1 301.4 74.501 A 26.372 26.372 0 0 1 299.585 74.442 Q 297.722 74.313 296.45 73.901 A 5.334 5.334 0 0 1 295.217 73.331 A 3.821 3.821 0 0 1 293.85 71.851 Q 293.276 70.741 293.053 69.806 A 5.433 5.433 0 0 1 292.95 69.251 A 13.228 13.228 0 0 1 292.878 68.513 Q 292.8 67.454 292.8 65.801 L 292.8 15.601 L 273.6 15.601 A 21.793 21.793 0 0 1 271.977 15.545 Q 270.427 15.428 269.422 15.071 A 4.663 4.663 0 0 1 268.9 14.851 A 3.783 3.783 0 0 1 266.932 12.6 A 4.588 4.588 0 0 1 266.9 12.501 A 9.367 9.367 0 0 1 266.605 11.222 Q 266.4 9.966 266.4 8.301 A 22.254 22.254 0 0 1 266.449 6.778 Q 266.555 5.229 266.894 4.168 A 6.696 6.696 0 0 1 266.9 4.151 A 4.466 4.466 0 0 1 267.35 3.159 A 3.078 3.078 0 0 1 268.6 2.001 A 7.067 7.067 0 0 1 270.015 1.488 Q 271.534 1.101 273.7 1.101 Z" id="4" transform="translate(110,28) scale(.6)"/>
</g>
</svg>
